<svg width="24" height="24" viewBox="0 0 24 24" fill="none" xmlns="http://www.w3.org/2000/svg">
<path d="M12.7503 7.30436V11.7789L16.3186 14.0123C16.4039 14.0657 16.4653 14.1523 16.4894 14.2531C16.5135 14.3538 16.4983 14.4604 16.447 14.5494C16.3958 14.6383 16.3128 14.7025 16.2163 14.7276C16.1198 14.7527 16.0176 14.7368 15.9323 14.6834L12.1822 12.3356C12.1267 12.3008 12.0808 12.2516 12.0489 12.1928C12.017 12.134 12.0003 12.0676 12.0003 12V7.30436C12.0003 7.20058 12.0398 7.10105 12.1102 7.02767C12.1805 6.95429 12.2759 6.91306 12.3753 6.91306C12.4748 6.91306 12.5702 6.95429 12.6405 7.02767C12.7108 7.10105 12.7503 7.20058 12.7503 7.30436ZM12.3753 3.00002C11.2416 2.99739 10.1186 3.22949 9.07144 3.68288C8.02427 4.13627 7.07371 4.80193 6.2748 5.64132C5.34852 6.61958 4.56193 7.54599 3.75003 8.56241V5.73915C3.75003 5.63537 3.71052 5.53584 3.64019 5.46246C3.56986 5.38907 3.47447 5.34785 3.37501 5.34785C3.27555 5.34785 3.18017 5.38907 3.10984 5.46246C3.03951 5.53584 3 5.63537 3 5.73915V9.65219C3 9.75597 3.03951 9.8555 3.10984 9.92888C3.18017 10.0023 3.27555 10.0435 3.37501 10.0435H7.12515C7.22461 10.0435 7.31999 10.0023 7.39032 9.92888C7.46065 9.8555 7.50016 9.75597 7.50016 9.65219C7.50016 9.54841 7.46065 9.44888 7.39032 9.37549C7.31999 9.30211 7.22461 9.26088 7.12515 9.26088H4.1691C5.02601 8.1848 5.84073 7.20654 6.80639 6.18915C7.90086 5.04706 9.29361 4.26683 10.8106 3.94595C12.3276 3.62507 13.9016 3.77777 15.3359 4.38497C16.7703 4.99216 18.0013 6.02693 18.8752 7.35998C19.7491 8.69303 20.2272 10.2653 20.2497 11.8802C20.2722 13.4951 19.8381 15.0812 19.0016 16.4401C18.1651 17.7991 16.9634 18.8707 15.5466 19.5211C14.1298 20.1716 12.5607 20.3719 11.0354 20.0971C9.51013 19.8223 8.09625 19.0846 6.97045 17.9762C6.8981 17.9049 6.80154 17.8664 6.70203 17.8694C6.60251 17.8723 6.50819 17.9164 6.43981 17.9919C6.37143 18.0674 6.3346 18.1681 6.33741 18.2719C6.34022 18.3758 6.38245 18.4742 6.45481 18.5455C7.47872 19.5538 8.72358 20.2852 10.0807 20.6759C11.4379 21.0666 12.866 21.1047 14.2406 20.7869C15.6151 20.4691 16.8941 19.8051 17.9661 18.8528C19.0381 17.9005 19.8703 16.6889 20.3903 15.3237C20.9102 13.9586 21.102 12.4814 20.9488 11.0211C20.7957 9.56078 20.3023 8.1618 19.5118 6.94626C18.7212 5.73072 17.6575 4.73558 16.4136 4.0477C15.1696 3.35983 13.7832 3.00013 12.3753 3.00002Z" fill="#292929"/>
</svg>
