<svg width="20" height="21" viewBox="0 0 20 21" fill="none" xmlns="http://www.w3.org/2000/svg">
<path d="M10 6.1875C9.14707 6.1875 8.31329 6.44042 7.6041 6.91429C6.89492 7.38815 6.34217 8.06167 6.01577 8.84968C5.68937 9.63768 5.60397 10.5048 5.77036 11.3413C5.93676 12.1779 6.34749 12.9463 6.9506 13.5494C7.55372 14.1525 8.32213 14.5632 9.15867 14.7296C9.99522 14.896 10.8623 14.8106 11.6503 14.4842C12.4383 14.1578 13.1118 13.6051 13.5857 12.8959C14.0596 12.1867 14.3125 11.3529 14.3125 10.5C14.311 9.35671 13.8562 8.26067 13.0478 7.45225C12.2393 6.64382 11.1433 6.18899 10 6.1875ZM10 13.6875C9.36957 13.6875 8.7533 13.5006 8.22912 13.1503C7.70494 12.8001 7.29639 12.3022 7.05513 11.7198C6.81388 11.1374 6.75076 10.4965 6.87375 9.87815C6.99674 9.25984 7.30032 8.69188 7.7461 8.2461C8.19188 7.80032 8.75984 7.49674 9.37815 7.37375C9.99646 7.25076 10.6374 7.31388 11.2198 7.55513C11.8022 7.79639 12.3001 8.20494 12.6503 8.72912C13.0006 9.2533 13.1875 9.86957 13.1875 10.5C13.1875 11.3454 12.8517 12.1561 12.2539 12.7539C11.6561 13.3517 10.8454 13.6875 10 13.6875ZM14.5 0.9375H5.5C4.1578 0.938989 2.871 1.47284 1.92192 2.42192C0.972836 3.371 0.438989 4.6578 0.4375 6V15C0.438989 16.3422 0.972836 17.629 1.92192 18.5781C2.871 19.5272 4.1578 20.061 5.5 20.0625H14.5C15.8422 20.061 17.129 19.5272 18.0781 18.5781C19.0272 17.629 19.561 16.3422 19.5625 15V6C19.561 4.6578 19.0272 3.371 18.0781 2.42192C17.129 1.47284 15.8422 0.938989 14.5 0.9375ZM18.4375 15C18.4375 16.0443 18.0227 17.0458 17.2842 17.7842C16.5458 18.5227 15.5443 18.9375 14.5 18.9375H5.5C4.45571 18.9375 3.45419 18.5227 2.71577 17.7842C1.97734 17.0458 1.5625 16.0443 1.5625 15V6C1.5625 4.95571 1.97734 3.95419 2.71577 3.21577C3.45419 2.47734 4.45571 2.0625 5.5 2.0625H14.5C15.5443 2.0625 16.5458 2.47734 17.2842 3.21577C18.0227 3.95419 18.4375 4.95571 18.4375 6V15ZM15.8125 5.625C15.8125 5.81042 15.7575 5.99168 15.6545 6.14585C15.5515 6.30002 15.4051 6.42018 15.2338 6.49114C15.0625 6.56209 14.874 6.58066 14.6921 6.54449C14.5102 6.50831 14.3432 6.41902 14.2121 6.28791C14.081 6.1568 13.9917 5.98975 13.9555 5.8079C13.9193 5.62604 13.9379 5.43754 14.0089 5.26623C14.0798 5.09493 14.2 4.94851 14.3542 4.8455C14.5083 4.74248 14.6896 4.6875 14.875 4.6875C15.1236 4.6875 15.3621 4.78627 15.5379 4.96209C15.7137 5.1379 15.8125 5.37636 15.8125 5.625Z" fill="white"/>
</svg>
