<svg width="28" height="28" viewBox="0 0 28 28" fill="none" xmlns="http://www.w3.org/2000/svg">
<path d="M0 13.9998C0.000359232 6.26764 6.26788 -0.000244141 14 -0.000244141C21.7321 -0.000244141 28.0004 6.26764 28.0004 13.9998C28.0004 21.7319 21.7325 27.9994 14 28.0001C6.26788 27.9994 0.000359232 21.7319 0 13.9998ZM4.35785 4.3576C1.89028 6.82589 0.363902 10.2336 0.363902 13.9998C0.363902 17.7663 1.89028 21.174 4.35785 23.6423C6.82613 26.1098 10.2338 27.6359 14 27.6359C17.7662 27.6359 21.1742 26.1098 23.6425 23.6423C26.1108 21.174 27.6365 17.7663 27.6365 13.9998C27.6365 10.2339 26.1108 6.82589 23.6425 4.3576C21.1739 1.88968 17.7662 0.363658 14 0.363658C10.2338 0.363658 6.82613 1.88968 4.35785 4.3576Z" fill="#292929"/>
<path d="M10.1309 9.63627C10.1309 7.49991 11.8627 5.76769 13.9998 5.76733C16.1361 5.76769 17.8684 7.49955 17.8684 9.63627C17.8684 11.773 16.1365 13.5052 13.9998 13.5056C11.8627 13.5052 10.1309 11.773 10.1309 9.63627ZM10.5152 9.63627C10.5188 11.5603 12.0754 13.1165 13.9994 13.1205C15.9231 13.1165 17.4797 11.5603 17.4833 9.63627C17.4797 7.71222 15.9231 6.15602 13.9994 6.15279C12.0754 6.15602 10.5188 7.71222 10.5152 9.63627Z" fill="#292929"/>
<path d="M6.50195 20.9592L6.5271 20.7559C7.02607 16.6732 10.1694 13.5073 14.0009 13.5051C17.8329 13.5073 20.9765 16.6732 21.4751 20.7559L21.4999 20.9592H6.50195ZM21.0864 20.5957C20.5264 16.7691 17.5573 13.8662 14.0006 13.8683C10.4449 13.8662 7.47475 16.7691 6.91507 20.5957H21.0864Z" fill="#292929"/>
</svg>
