<svg width="20" height="21" viewBox="0 0 20 21" fill="none" xmlns="http://www.w3.org/2000/svg">
<path d="M15.5013 12.2466L12.5013 10.7466C12.4127 10.7025 12.314 10.6826 12.2153 10.6888C12.1165 10.6951 12.0211 10.7273 11.9388 10.7822L10.4688 11.7619C9.72461 11.3809 9.11915 10.7754 8.73818 10.0312L9.71881 8.56219C9.7737 8.47985 9.8059 8.38448 9.81215 8.28572C9.81841 8.18696 9.7985 8.08829 9.75443 7.99969L8.25443 4.99969C8.20779 4.90583 8.13586 4.82687 8.04674 4.77171C7.95762 4.71655 7.85486 4.68738 7.75006 4.6875C6.80522 4.6875 5.89909 5.06283 5.23099 5.73093C4.56289 6.39903 4.18755 7.30517 4.18755 8.25C4.19004 10.3875 5.04027 12.4368 6.55175 13.9483C8.06322 15.4598 10.1125 16.31 12.2501 16.3125C13.1949 16.3125 14.101 15.9372 14.7691 15.2691C15.4372 14.601 15.8126 13.6948 15.8126 12.75C15.8126 12.6454 15.7835 12.543 15.7285 12.454C15.6735 12.3651 15.5948 12.2933 15.5013 12.2466ZM12.2501 15.1875C10.4108 15.1853 8.64752 14.4536 7.34697 13.1531C6.04642 11.8525 5.31479 10.0893 5.31255 8.25C5.31261 7.66172 5.52542 7.0933 5.91172 6.64962C6.29802 6.20594 6.83175 5.91694 7.41443 5.83594L8.60131 8.20969L7.62724 9.67031C7.57606 9.74735 7.54467 9.83582 7.53584 9.92788C7.52701 10.0199 7.54101 10.1128 7.57662 10.1981C8.09386 11.4279 9.07216 12.4062 10.3019 12.9234C10.3873 12.959 10.4801 12.973 10.5722 12.9642C10.6642 12.9554 10.7527 12.924 10.8297 12.8728L12.2904 11.8988L14.6641 13.0856C14.5831 13.6683 14.2941 14.202 13.8504 14.5883C13.4068 14.9746 12.8383 15.1874 12.2501 15.1875ZM10.0001 0.9375C8.34236 0.937152 6.71304 1.36774 5.27195 2.18703C3.83086 3.00632 2.62751 4.18616 1.77995 5.61081C0.932384 7.03545 0.469728 8.65595 0.437369 10.3133C0.40501 11.9707 0.804059 13.608 1.59537 15.0647L0.505992 18.3337C0.42887 18.565 0.417678 18.8132 0.47367 19.0504C0.529662 19.2877 0.650626 19.5047 0.823003 19.6771C0.99538 19.8494 1.21236 19.9704 1.44962 20.0264C1.68688 20.0824 1.93505 20.0712 2.1663 19.9941L5.43537 18.9047C6.71504 19.5991 8.13639 19.9922 9.59104 20.0539C11.0457 20.1156 12.4952 19.8444 13.8291 19.2608C15.163 18.6772 16.346 17.7968 17.288 16.6866C18.2299 15.5764 18.9059 14.2657 19.2644 12.8546C19.6229 11.4435 19.6545 9.96913 19.3567 8.54396C19.0588 7.11879 18.4395 5.78044 17.5459 4.63097C16.6523 3.48149 15.508 2.55125 14.2003 1.91117C12.8926 1.27108 11.456 0.938063 10.0001 0.9375ZM10.0001 18.9375C8.51687 18.9379 7.05979 18.5472 5.77568 17.805C5.69007 17.7558 5.59317 17.7296 5.49443 17.7291C5.4339 17.7294 5.3738 17.7392 5.31631 17.7581L1.81099 18.9263C1.77796 18.9373 1.7425 18.9389 1.70861 18.9309C1.67471 18.9229 1.64372 18.9056 1.61909 18.881C1.59447 18.8563 1.57719 18.8253 1.56919 18.7914C1.56119 18.7576 1.56279 18.7221 1.5738 18.6891L2.74193 15.1875C2.7672 15.1118 2.7761 15.0317 2.76801 14.9523C2.75993 14.8729 2.73506 14.7962 2.69506 14.7272C1.76436 13.1195 1.39026 11.2495 1.6308 9.40749C1.87134 7.56544 2.71306 5.85428 4.02539 4.53945C5.33773 3.22463 7.0473 2.37965 8.88888 2.13562C10.7305 1.89159 12.6011 2.26213 14.2106 3.18978C15.8201 4.11742 17.0784 5.55031 17.7904 7.26612C18.5024 8.98194 18.6283 10.8848 18.1484 12.6794C17.6686 14.4741 16.6099 16.0602 15.1366 17.1917C13.6633 18.3232 11.8577 18.9369 10.0001 18.9375Z" fill="white"/>
</svg>
